<svg width="11" height="11" viewBox="0 0 11 11" fill="none" xmlns="http://www.w3.org/2000/svg">
<path d="M2.33705 3.89956H0.127232V10.5357H2.33705V3.89956ZM2.47768 1.85045C2.47098 1.2009 2.00223 0.70536 1.24554 0.70536C0.495536 0.70536 0 1.2009 0 1.85045C0 2.48661 0.475446 2.99554 1.21875 2.99554H1.23214C2.00223 2.99554 2.48438 2.48661 2.47768 1.85045ZM10.2857 6.73215C10.2857 4.69643 9.20089 3.74554 7.74777 3.74554C6.5558 3.74554 6.03348 4.40849 5.74554 4.86384H5.75893V3.89956H3.5558C3.5558 3.89956 3.58259 4.52233 3.5558 10.5357H5.75893V6.83259C5.75893 6.6317 5.77902 6.4375 5.83259 6.29018C5.9933 5.89509 6.35491 5.48661 6.96429 5.48661C7.76116 5.48661 8.08259 6.09599 8.08259 6.98661V10.5357H10.2857V6.73215Z" fill="black"/>
</svg>
