<svg width="12" height="9" viewBox="0 0 12 9" fill="none" xmlns="http://www.w3.org/2000/svg">
<path d="M10.875 0C11.1875 0 11.4531 0.109375 11.6719 0.328125C11.8906 0.546875 12 0.8125 12 1.125V7.875C12 8.1875 11.8906 8.45312 11.6719 8.67188C11.4531 8.89062 11.1875 9 10.875 9H1.125C0.8125 9 0.546875 8.89062 0.328125 8.67188C0.109375 8.45312 0 8.1875 0 7.875V1.125C0 0.8125 0.109375 0.546875 0.328125 0.328125C0.546875 0.109375 0.8125 0 1.125 0H10.875ZM10.875 1.125H1.125V2.08594C1.67188 2.52344 2.72656 3.35156 4.28906 4.57031C4.28906 4.58594 4.39844 4.6875 4.61719 4.875C4.83594 5.04688 5 5.17188 5.10938 5.25C5.21875 5.3125 5.35938 5.39062 5.53125 5.48438C5.71875 5.57812 5.875 5.625 6 5.625C6.125 5.625 6.27344 5.57812 6.44531 5.48438C6.63281 5.39062 6.78125 5.3125 6.89062 5.25C7 5.17188 7.16406 5.04688 7.38281 4.875C7.60156 4.6875 7.71094 4.58594 7.71094 4.57031C9.27344 3.35156 10.3281 2.52344 10.875 2.08594V1.125ZM1.125 7.875H10.875V3.51562C10.3281 3.95312 9.50781 4.60156 8.41406 5.46094C8.38281 5.47656 8.26562 5.57031 8.0625 5.74219C7.875 5.91406 7.72656 6.03906 7.61719 6.11719C7.50781 6.19531 7.35156 6.29688 7.14844 6.42188C6.94531 6.53125 6.75 6.61719 6.5625 6.67969C6.375 6.72656 6.1875 6.75 6 6.75C5.8125 6.75 5.61719 6.72656 5.41406 6.67969C5.22656 6.61719 5.03125 6.52344 4.82812 6.39844C4.64062 6.27344 4.49219 6.17188 4.38281 6.09375C4.27344 6.01562 4.11719 5.89844 3.91406 5.74219C3.72656 5.57031 3.61719 5.47656 3.58594 5.46094C2.49219 4.60156 1.67188 3.95312 1.125 3.51562V7.875Z" fill="black"/>
</svg>
