<svg width="12" height="11" viewBox="0 0 12 11" fill="none" xmlns="http://www.w3.org/2000/svg">
<path d="M11.4442 3.18303C11.5112 1.76339 10.9821 1.03348 9.86383 0.999998C8.35044 0.953123 7.32589 1.80357 6.79017 3.55803C7.07142 3.44419 7.33928 3.38393 7.60044 3.38393C8.14955 3.38393 8.39062 3.69196 8.33035 4.31473C8.29687 4.68973 8.0558 5.23884 7.60044 5.96205C7.13839 6.68527 6.79687 7.04018 6.56919 7.04018C6.27455 7.04018 6.01339 6.48437 5.76562 5.37277C5.68526 5.05134 5.53125 4.21428 5.32366 2.875C5.12276 1.63616 4.60714 1.06027 3.75669 1.14062C3.39509 1.17411 2.85267 1.48884 2.14285 2.1183C1.61383 2.58036 1.08482 3.0625 0.549103 3.53794L1.06473 4.19419C1.55357 3.85268 1.83482 3.68527 1.91517 3.68527C2.29017 3.68527 2.64509 4.26786 2.96651 5.43973C3.26116 6.51786 3.5558 7.59598 3.85044 8.66741C4.28571 9.83928 4.82142 10.4286 5.45758 10.4286C6.48883 10.4286 7.73437 9.46428 9.22098 7.54241C10.654 5.6942 11.3973 4.24107 11.4442 3.18303Z" fill="black"/>
</svg>
